# xmcd
#
# Track frame offsets:
#	150
#	10023
#	29233
#	46070
#	62980
#	75965
#	88293
#	108998
#	125318
#	137353
#	153510
#	167368
#	183628
#	197313
#
# Disc length: 2911 seconds
#
# Revision: 0
# Processed by: cddbd v1.4PL0 Copyright (c) Steve Scherf et al.
# Submitted via: OrangeCD 4.1
#
DISCID=a90b5d0e
DTITLE=Doctor Feelgood - Live In London
DYEAR=1900
DGENRE=
TTITLE0=King For A Day
TTITLE1=You Upset Me
TTITLE2=As Long As The Price Is Right
TTITLE3=Mad Man Blues
TTITLE4=She Does It Right
TTITLE5=Baby Jane
TTITLE6=Quit While You're Behind
TTITLE7=Back In The Night
TTITLE8=Milk and Alcohol
TTITLE9=See You Later Alligator
TTITLE10=Down At The Doctors
TTITLE11=Route 66
TTITLE12=Going Back Home
TTITLE13=Bony Maronie/Tequila
EXTD=
EXTT0=
EXTT1=
EXTT2=
EXTT3=
EXTT4=
EXTT5=
EXTT6=
EXTT7=
EXTT8=
EXTT9=
EXTT10=
EXTT11=
EXTT12=
EXTT13=
PLAYORDER=
